#!OML:ASF X:\für Bonn\!DataBase\2005_08_12_Daniel\c3d\Daniel.ASF
:FULLY-SPECIFIED
:DEGREES
230
root -0.163312 17.2882 0.176412 -17.0051 -85.3847 6.90469
lowerback 9.40019 -0.479272 1.54029
upperback -2.67971 -0.688906 -2.79472
thorax -8.18568 -0.50414 -3.72391
lowerneck 10.9766 -1.69476 3.40031
upperneck 4.49196 -2.03625 -4.12547
head -0.526312 -0.997966 -1.80355
rclavicle 2.42517e-014 -1.90833e-014
rhumerus -128.636 -187.989 121.275
rradius 51.3013
rwrist 15.6943
rhand -20.9974 372.255
rfingers 7.12502
rthumb 5.37688 -17.6571
lclavicle 2.42517e-014 -1.90833e-014
lhumerus -154.619 204.991 -103.474
lradius 92.8064
lwrist 13.4811
lhand -18.2447 360.194
lfingers 7.12502
lthumb 8.03414 30.0216
rfemur 7.69636 9.16846 17.3335
rtibia 29.6856
rfoot -28.5658 -18.8138
rtoes -7.58191
lfemur -5.02578 -12.1966 -16.6019
ltibia 40.4456
lfoot -17.9682 -4.38871
ltoes 6.12834
231
root -0.148153 17.2433 0.175147 -14.8685 -85.479 4.69613
lowerback 9.4292 -0.562473 1.67973
upperback -2.53286 -0.77185 -2.71723
thorax -8.05134 -0.544286 -3.70522
lowerneck 10.8127 -1.60824 3.4395
upperneck 4.1909 -1.91735 -4.38886
head -0.596066 -0.930295 -1.90202
rclavicle 1.0138e-014 2.62396e-014
rhumerus -130.976 -188.819 121.289
rradius 54.1939
rwrist 15.2579
rhand -21.129 372.384
rfingers 7.12502
rthumb 5.24976 -17.5312
lclavicle 1.0138e-014 2.62396e-014
lhumerus -156.319 205.109 -103.455
lradius 94.1073
lwrist 13.536
lhand -18.1594 359.881
lfingers 7.12502
lthumb 8.1165 29.7055
rfemur 7.61984 8.66705 17.422
rtibia 29.829
rfoot -28.6779 -18.5987
rtoes -7.97494
lfemur -5.02513 -12.0333 -16.4067
ltibia 40.7319
lfoot -18.9664 -4.65537
ltoes 5.93481
232
root -0.133122 17.1962 0.174286 -12.6162 -85.5583 2.31246
lowerback 9.52559 -0.650976 1.8283
upperback -2.36668 -0.860424 -2.63942
thorax -7.93618 -0.587532 -3.69072
lowerneck 10.5935 -1.51029 3.43341
upperneck 3.9223 -1.79054 -4.61867
head -0.64404 -0.860474 -1.98213
rclavicle 9.93923e-017 6.36111e-015
rhumerus -133.358 -189.66 121.324
rradius 57.0524
rwrist 14.7761
rhand -21.1978 372.641
rfingers 7.12502
rthumb 5.18334 -17.2752
lclavicle 9.93923e-017 6.36111e-015
lhumerus -158.081 205.265 -103.416
lradius 95.4376
lwrist 13.6257
lhand -18.0837 359.69
lfingers 7.12502
lthumb 8.18956 29.5117
rfemur 7.65019 8.22416 17.5535
rtibia 29.9185
rfoot -28.8951 -18.4155
rtoes -8.38287
lfemur -4.99786 -11.9173 -16.2279
ltibia 41.0537
lfoot -19.9894 -4.85233
ltoes 5.64673
233
root -0.118306 17.1488 0.173209 -10.035 -85.6409 -0.427787
lowerback 9.64827 -0.739036 1.99658
upperback -2.18291 -0.945287 -2.55655
thorax -7.81761 -0.629333 -3.6826
lowerneck 10.3424 -1.41152 3.37931
upperneck 3.65134 -1.66939 -4.81929
head -0.686001 -0.794651 -2.04392
rclavicle 7.35503e-015 -6.36111e-015
rhumerus -135.802 -190.522 121.286
rradius 59.931
rwrist 14.3902
rhand -21.2145 372.93
rfingers 7.12502
rthumb 5.16722 -16.9867
lclavicle 7.35503e-015 -6.36111e-015
lhumerus -159.842 205.448 -103.38
lradius 96.7204
lwrist 13.6991
lhand -18.0121 359.47
lfingers 7.12502
lthumb 8.25863 29.2888
rfemur 7.72958 7.84186 17.7399
rtibia 29.9825
rfoot -29.2319 -18.2626
rtoes -8.69893
lfemur -4.94041 -11.8011 -16.0329
ltibia 41.372
lfoot -21.0345 -5.02776
ltoes 5.31891
234
root -0.103787 17.1013 0.172149 -7.46378 -85.7206 -3.20729
lowerback 9.82468 -0.825189 2.14919
upperback -1.98471 -1.02851 -2.46556
thorax -7.71419 -0.669311 -3.65708
lowerneck 9.99404 -1.30394 3.27302
upperneck 3.44696 -1.54324 -4.98753
head -0.688183 -0.729117 -2.08561
rclavicle 2.68359e-015 -2.46493e-014
rhumerus -138.314 -191.43 121.147
rradius 62.8577
rwrist 14.0863
rhand -21.1275 373.226
rfingers 7.12502
rthumb 5.25129 -16.6886
lclavicle 2.68359e-015 -2.46493e-014
lhumerus -161.617 205.633 -103.287
lradius 97.9523
lwrist 13.736
lhand -17.891 359.382
lfingers 7.12502
lthumb 8.37549 29.1955
rfemur 7.88215 7.54507 17.9545
rtibia 30.0318
rfoot -29.6478 -18.1263
rtoes -8.79249
lfemur -4.81723 -11.6687 -15.8506
ltibia 41.657
lfoot -22.0276 -5.18391
ltoes 5.05143
235
root -0.0886429 17.0569 0.171603 -4.89408 -85.7889 -6.00158
lowerback 10.1133 -0.916119 2.31706
upperback -1.80767 -1.11722 -2.39852
thorax -7.69965 -0.715144 -3.66461
lowerneck 9.44606 -1.19291 3.17664
upperneck 3.35224 -1.41132 -5.12891
head -0.620305 -0.664271 -2.11982
rclavicle 1.63997e-014 1.43125e-014
rhumerus -140.848 -192.376 120.882
rradius 65.7601
rwrist 13.7928
rhand -20.9519 373.52
rfingers 7.12502
rthumb 5.42076 -16.3905
lclavicle 1.63997e-014 1.43125e-014
lhumerus -163.429 205.844 -103.16
lradius 99.0846
lwrist 13.7941
lhand -17.7577 359.298
lfingers 7.12502
lthumb 8.50415 29.1063
rfemur 8.06202 7.29967 18.1802
rtibia 30.0698
rfoot -30.079 -18.02
rtoes -8.93136
lfemur -4.6503 -11.561 -15.6853
ltibia 41.8843
lfoot -22.9679 -5.28695
ltoes 4.81746
236
root -0.0738039 17.0152 0.171114 -2.30551 -85.8645 -8.8576
lowerback 10.5468 -0.997349 2.49346
upperback -1.63377 -1.19016 -2.34175
thorax -7.77089 -0.755458 -3.6896
lowerneck 8.59952 -1.07525 3.09288
upperneck 3.4509 -1.26744 -5.25658
head -0.439341 -0.59944 -2.15128
rclavicle -1.94809e-014 1.19271e-014
rhumerus -143.407 -193.345 120.539
rradius 68.6146
rwrist 13.5584
rhand -20.7783 373.802
rfingers 7.12502
rthumb 5.58842 -16.1043
lclavicle -1.94809e-014 1.19271e-014
lhumerus -165.4 206.075 -102.88
lradius 100.297
lwrist 13.7862
lhand -17.5906 359.272
lfingers 7.12502
lthumb 8.66538 29.0743
rfemur 8.30489 7.17444 18.4396
rtibia 30.0976
rfoot -30.6072 -17.9534
rtoes -9.02108
lfemur -4.40101 -11.4068 -15.5203
ltibia 42.0453
lfoot -23.8679 -5.38443
ltoes 4.51212
237
root -0.060261 16.9767 0.17079 0.255808 -85.9526 -11.7024
lowerback 11.0047 -1.07119 2.64754
upperback -1.44749 -1.25408 -2.27685
thorax -7.84103 -0.790053 -3.69391
lowerneck 7.79201 -0.960393 2.98569
upperneck 3.48808 -1.12778 -5.37799
head -0.284843 -0.536624 -2.17612
rclavicle -5.56597e-015 1.27222e-014
rhumerus -145.971 -194.362 120.132
rradius 71.4163
rwrist 13.3421
rhand -20.5679 374.087
rfingers 7.12502
rthumb 5.7915 -15.8141
lclavicle -5.56597e-015 1.27222e-014
lhumerus -167.482 206.287 -102.487
lradius 101.517
lwrist 13.7893
lhand -17.367 359.252
lfingers 7.12502
lthumb 8.88121 29.0456
rfemur 8.57875 7.1484 18.7269
rtibia 30.1066
rfoot -31.088 -17.9784
rtoes -9.09661
lfemur -4.09874 -11.2795 -15.3839
ltibia 42.1453
lfoot -24.725 -5.38588
ltoes 4.18009
238
root -0.0459475 16.9406 0.171506 2.60716 -86.0433 -14.336
lowerback 11.5071 -1.14905 2.78087
upperback -1.2815 -1.3253 -2.22008
thorax -7.95846 -0.828779 -3.69289
lowerneck 7.09068 -0.842857 2.8455
upperneck 3.47975 -0.985312 -5.45911
head -0.162092 -0.472207 -2.18145
rclavicle 4.77083e-015 -1.27222e-014
rhumerus -148.621 -195.472 119.609
rradius 74.1985
rwrist 13.1254
rhand -20.3755 374.308
rfingers 7.12502
rthumb 5.97731 -15.5872
lclavicle 4.77083e-015 -1.27222e-014
lhumerus -169.671 206.542 -102.074
lradius 102.658
lwrist 13.7937
lhand -17.2778 359.253
lfingers 7.12502
lthumb 8.96723 29.0429
rfemur 8.83523 7.18628 19.0017
rtibia 30.1167
rfoot -31.5162 -18.112
rtoes -9.26751
lfemur -3.76847 -11.1725 -15.2859
ltibia 42.19
lfoot -25.5278 -5.35362
ltoes 3.89077
